<svg width="40.000000" height="40.000000" viewBox="0 0 40 40" fill="none" xmlns="http://www.w3.org/2000/svg" xmlns:xlink="http://www.w3.org/1999/xlink">
	<desc>
			Created with Pixso.
	</desc>
	<circle id="椭圆 6" cx="20.000000" cy="20.000000" r="19.500000" stroke="#7E7E7E" stroke-opacity="0.5"/>
	<path id="形状" d="M11.7578 12.752C10.6328 13.877 10 15.4033 10 16.9941L10 23.0059C10 26.3047 12.6875 29 16 29L30 29L30 16.9941C30 13.6953 27.3125 11 24 11L16 11C14.4102 10.9971 12.8828 11.6279 11.7578 12.752ZM28 16.9941L28 27L16 27C13.793 26.998 12.0039 25.2119 12 23.0059L12 16.9941C12 15.9336 12.4219 14.916 13.1719 14.167C13.9219 13.417 14.9375 12.9971 16 13L24 13C26.207 13.002 27.9961 14.7881 28 16.9941ZM18 19L16 19L16 21L18 21L18 19ZM22 19L24 19L24 21L22 21L22 19Z" clip-rule="evenodd" fill-rule="evenodd" fill="#000000" fill-opacity="0.400000"/>
	<defs/>
</svg>
