<?xml version="1.0" encoding="utf-8"?>
<svg version="1.1" xmlns:xlink="http://www.w3.org/1999/xlink" width="29px" height="43px" xmlns="http://www.w3.org/2000/svg">
  <g transform="matrix(1 0 0 1 -584 -328 )">
    <path d="M 19.78173828125 10.022135416666664  C 20.48974609375 10.731336805555555  20.84375 11.571180555555555  20.84375 12.541666666666664  C 20.84375 12.78428819444444  20.754069010416668 12.99424913194444  20.57470703125 13.171549479166664  C 20.395345052083336 13.348849826388886  20.182942708333336 13.4375  19.9375 13.4375  C 19.692057291666668 13.4375  19.479654947916668 13.348849826388886  19.30029296875 13.171549479166664  C 19.120930989583336 12.99424913194444  19.03125 12.78428819444444  19.03125 12.541666666666664  C 19.03125 11.68315972222222  18.521484375 11.02061631944444  17.501953125 10.554036458333336  C 16.482421875 10.08745659722222  15.481770833333336 9.854166666666664  14.5 9.854166666666664  C 14.254557291666668 9.854166666666664  14.042154947916668 9.765516493055555  13.86279296875 9.588216145833336  C 13.683430989583336 9.410915798611105  13.593750000000002 9.200954861111105  13.59375 8.958333333333336  C 13.593750000000002 8.715711805555555  13.683430989583336 8.505750868055555  13.86279296875 8.328450520833336  C 14.042154947916668 8.151150173611105  14.254557291666668 8.0625  14.5 8.0625  C 15.444010416666668 8.0625  16.38330078125 8.211805555555555  17.31787109375 8.510416666666664  C 18.25244140625 8.809027777777775  19.07373046875 9.312934027777775  19.78173828125 10.022135416666664  Z M 23.44921875 17.580729166666664  C 24.733072916666668 16.106336805555554  25.375 14.426649305555555  25.375 12.541666666666664  C 25.375 11.197916666666664  25.04931640625 9.947482638888886  24.39794921875 8.790364583333336  C 23.74658203125 7.633246527777775  22.89697265625 6.68608940972222  21.84912109375 5.948893229166665  C 20.80126953125 5.211697048611105  19.64013671875 4.633138020833335  18.36572265625 4.213216145833335  C 17.09130859375 3.793294270833335  15.802734375 3.583333333333335  14.5 3.583333333333335  C 13.197265625 3.583333333333335  11.90869140625 3.793294270833335  10.63427734375 4.213216145833335  C 9.35986328125 4.633138020833335  8.19873046875 5.211697048611105  7.15087890625 5.948893229166665  C 6.10302734375 6.68608940972222  5.25341796875 7.633246527777775  4.60205078125 8.790364583333336  C 3.95068359375 9.947482638888886  3.625 11.197916666666664  3.625 12.541666666666664  C 3.625 14.426649305555555  4.266927083333334 16.106336805555554  5.55078125 17.580729166666664  C 5.739583333333334 17.786024305555554  6.027506510416667 18.093967013888886  6.41455078125 18.504557291666664  C 6.801595052083334 18.915147569444446  7.089518229166667 19.223090277777775  7.2783203125 19.428385416666664  C 9.694986979166668 22.28385416666667  11.026041666666668 25.06467013888889  11.271484375 27.77083333333333  L 17.728515625 27.77083333333333  C 17.973958333333336 25.06467013888889  19.305013020833336 22.28385416666667  21.7216796875 19.428385416666664  C 21.910481770833336 19.223090277777775  22.19840494791667 18.915147569444446  22.58544921875 18.504557291666664  C 22.972493489583336 18.093967013888886  23.260416666666668 17.786024305555554  23.44921875 17.580729166666664  Z M 27.73974609375 7.376627604166665  C 28.579915364583336 8.972330729166664  29 10.694010416666664  29 12.541666666666664  C 29 15.434461805555555  28.027669270833336 17.93532986111111  26.0830078125 20.044270833333336  C 25.233398437500004 20.95876736111111  24.530110677083336 21.77061631944444  23.97314453125 22.47981770833333  C 23.416178385416668 23.18901909722222  22.8544921875 24.08018663194444  22.2880859375 25.1533203125  C 21.7216796875 26.22645399305555  21.400716145833336 27.22960069444444  21.3251953125 28.16276041666667  C 22.212565104166668 28.68532986111111  22.65625 29.45052083333333  22.65625 30.45833333333333  C 22.65625 31.14887152777777  22.420247395833336 31.74609375  21.9482421875 32.25  C 22.420247395833336 32.75390625  22.65625 33.35112847222222  22.65625 34.041666666666664  C 22.65625 35.01215277777778  22.2314453125 35.76801215277778  21.3818359375 36.309244791666664  C 21.627278645833332 36.738498263888886  21.75 37.177083333333336  21.75 37.625  C 21.75 38.48350694444444  21.45263671875 39.14605034722222  20.85791015625 39.612630208333336  C 20.26318359375 40.07921006944444  19.531575520833336 40.3125  18.6630859375 40.3125  C 18.285481770833336 41.13368055555556  17.719075520833336 41.786892361111114  16.9638671875 42.272135416666664  C 16.208658854166668 42.75737847222222  15.387369791666668 43  14.5 43  C 13.612630208333336 43  12.791341145833336 42.75737847222222  12.0361328125 42.272135416666664  C 11.280924479166668 41.786892361111114  10.714518229166668 41.13368055555556  10.3369140625 40.3125  C 9.468424479166668 40.3125  8.73681640625 40.07921006944444  8.14208984375 39.612630208333336  C 7.54736328125 39.14605034722222  7.25 38.48350694444444  7.25 37.625  C 7.25 37.177083333333336  7.372721354166668 36.738498263888886  7.6181640625 36.309244791666664  C 6.7685546875 35.76801215277778  6.34375 35.01215277777778  6.34375 34.041666666666664  C 6.34375 33.35112847222222  6.579752604166667 32.75390625  7.0517578125 32.25  C 6.579752604166667 31.74609375  6.34375 31.14887152777777  6.34375 30.45833333333333  C 6.34375 29.45052083333333  6.787434895833334 28.68532986111111  7.6748046875 28.16276041666667  C 7.599283854166668 27.22960069444444  7.2783203125 26.22645399305555  6.7119140625 25.1533203125  C 6.145507812500001 24.08018663194444  5.583821614583334 23.18901909722222  5.02685546875 22.47981770833333  C 4.469889322916667 21.77061631944444  3.7666015625 20.95876736111111  2.9169921875 20.044270833333336  C 0.9723307291666665 17.93532986111111  0 15.434461805555555  0 12.541666666666664  C 0 10.694010416666664  0.42008463541666663 8.972330729166664  1.26025390625 7.376627604166665  C 2.1004231770833335 5.780924479166665  3.2049153645833335 4.455837673611105  4.57373046875 3.4013671875  C 5.942545572916668 2.3468967013888853  7.49072265625 1.5163845486111054  9.21826171875 0.9098307291666651  C 10.945800781250002 0.3032769097222201  12.706380208333336 0  14.5 0  C 16.293619791666668 0  18.05419921875 0.3032769097222201  19.78173828125 0.9098307291666651  C 21.50927734375 1.5163845486111054  23.057454427083336 2.3468967013888853  24.42626953125 3.4013671875  C 25.795084635416668 4.455837673611105  26.899576822916668 5.780924479166665  27.73974609375 7.376627604166665  Z " fill-rule="nonzero" fill="#0d8bff" stroke="none" transform="matrix(1 0 0 1 584 328 )" />
  </g>
</svg>
