<?xml version="1.0" standalone="no"?><!DOCTYPE svg PUBLIC "-//W3C//DTD SVG 1.1//EN" "http://www.w3.org/Graphics/SVG/1.1/DTD/svg11.dtd"><svg t="1682503083196" class="icon" viewBox="0 0 1024 1024" version="1.1" xmlns="http://www.w3.org/2000/svg" p-id="2860" xmlns:xlink="http://www.w3.org/1999/xlink" width="200" height="200"><path d="M852.875185 536.052206H170.129297a23.813948 23.813948 0 0 1-23.813948-23.813947V121.689512A121.689274 121.689274 0 0 1 268.004623 0.000238h487.233375a121.689274 121.689274 0 0 1 121.927414 121.689274v389.834328a23.813948 23.813948 0 0 1-24.290227 24.528366zM195.133943 487.233613h633.212876V121.689512a72.870681 72.870681 0 0 0-73.108821-72.870681H268.004623a72.870681 72.870681 0 0 0-72.87068 72.870681z" p-id="2861"></path><path d="M755.237998 1024H268.004623A121.927414 121.927414 0 0 1 146.315349 901.358168V511.52384a23.813948 23.813948 0 0 1 23.813948-23.813948h682.745888a23.813948 23.813948 0 0 1 23.813948 23.813948v389.834328a121.927414 121.927414 0 0 1-121.451135 122.641832zM195.133943 536.052206v365.305962a73.10882 73.10882 0 0 0 72.87068 73.10882h487.233375a73.10882 73.10882 0 0 0 73.108821-73.10882V536.052206zM292.53299 146.217879h48.818593v243.616687H292.53299z" p-id="2862"></path><path d="M292.53299 633.451254h48.818593v243.616687H292.53299z" p-id="2863"></path></svg>